<svg width="32" height="32" viewBox="0 0 32 32" fill="none" xmlns="http://www.w3.org/2000/svg">
<path d="M28 1H4C3.20435 1 2.44129 1.31607 1.87868 1.87868C1.31607 2.44129 1 3.20435 1 4V28C1 28.7956 1.31607 29.5587 1.87868 30.1213C2.44129 30.6839 3.20435 31 4 31H28C28.7956 31 29.5587 30.6839 30.1213 30.1213C30.6839 29.5587 31 28.7956 31 28V4C31 3.20435 30.6839 2.44129 30.1213 1.87868C29.5587 1.31607 28.7956 1 28 1ZM29 4V10.33H21.67V3H28C28.2652 3 28.5196 3.10536 28.7071 3.29289C28.8946 3.48043 29 3.73478 29 4ZM12.33 19.67V12.33H19.67V19.67H12.33ZM19.67 21.67V29H12.33V21.67H19.67ZM10.33 19.67H3V12.33H10.33V19.67ZM12.33 10.33V3H19.67V10.33H12.33ZM21.67 12.33H29V19.67H21.67V12.33ZM4 3H10.33V10.33H3V4C3 3.73478 3.10536 3.48043 3.29289 3.29289C3.48043 3.10536 3.73478 3 4 3ZM3 28V21.67H10.33V29H4C3.73478 29 3.48043 28.8946 3.29289 28.7071C3.10536 28.5196 3 28.2652 3 28ZM28 29H21.67V21.67H29V28C29 28.2652 28.8946 28.5196 28.7071 28.7071C28.5196 28.8946 28.2652 29 28 29Z" fill="black"/>
<path d="M6.67 19C7.26334 19 7.84336 18.8241 8.33671 18.4944C8.83006 18.1648 9.21457 17.6962 9.44164 17.148C9.6687 16.5999 9.72811 15.9967 9.61235 15.4147C9.4966 14.8328 9.21088 14.2982 8.79132 13.8787C8.37176 13.4591 7.83721 13.1734 7.25527 13.0576C6.67333 12.9419 6.07013 13.0013 5.52195 13.2284C4.97377 13.4554 4.50523 13.8399 4.17559 14.3333C3.84594 14.8266 3.67 15.4067 3.67 16C3.67 16.7956 3.98607 17.5587 4.54868 18.1213C5.11129 18.6839 5.87435 19 6.67 19ZM6.67 15C6.86778 15 7.06112 15.0586 7.22557 15.1685C7.39002 15.2784 7.51819 15.4346 7.59388 15.6173C7.66957 15.8 7.68937 16.0011 7.65078 16.1951C7.6122 16.3891 7.51696 16.5673 7.3771 16.7071C7.23725 16.847 7.05907 16.9422 6.86509 16.9808C6.67111 17.0194 6.47004 16.9996 6.28731 16.9239C6.10459 16.8482 5.94841 16.72 5.83853 16.5556C5.72865 16.3911 5.67 16.1978 5.67 16C5.67 15.7348 5.77535 15.4804 5.96289 15.2929C6.15043 15.1054 6.40478 15 6.67 15ZM16 3.67C15.4067 3.67 14.8266 3.84594 14.3333 4.17559C13.8399 4.50523 13.4554 4.97377 13.2284 5.52195C13.0013 6.07013 12.9419 6.67333 13.0576 7.25527C13.1734 7.83721 13.4591 8.37176 13.8787 8.79132C14.2982 9.21088 14.8328 9.4966 15.4147 9.61235C15.9967 9.72811 16.5999 9.6687 17.148 9.44164C17.6962 9.21457 18.1648 8.83006 18.4944 8.33671C18.8241 7.84336 19 7.26334 19 6.67C19 5.87435 18.6839 5.11129 18.1213 4.54868C17.5587 3.98607 16.7956 3.67 16 3.67ZM16 7.67C15.8022 7.67 15.6089 7.61135 15.4444 7.50147C15.28 7.39159 15.1518 7.23541 15.0761 7.05268C15.0004 6.86996 14.9806 6.66889 15.0192 6.47491C15.0578 6.28093 15.153 6.10274 15.2929 5.96289C15.4327 5.82304 15.6109 5.7278 15.8049 5.68921C15.9989 5.65063 16.2 5.67043 16.3827 5.74612C16.5654 5.82181 16.7216 5.94998 16.8315 6.11443C16.9413 6.27888 17 6.47222 17 6.67C17 6.93521 16.8946 7.18957 16.7071 7.3771C16.5196 7.56464 16.2652 7.67 16 7.67ZM16 28.33C16.5933 28.33 17.1734 28.1541 17.6667 27.8244C18.1601 27.4948 18.5446 27.0262 18.7716 26.478C18.9987 25.9299 19.0581 25.3267 18.9424 24.7447C18.8266 24.1628 18.5409 23.6282 18.1213 23.2087C17.7018 22.7891 17.1672 22.5034 16.5853 22.3876C16.0033 22.2719 15.4001 22.3313 14.8519 22.5584C14.3038 22.7854 13.8352 23.1699 13.5056 23.6633C13.1759 24.1566 13 24.7367 13 25.33C13 26.1256 13.3161 26.8887 13.8787 27.4513C14.4413 28.0139 15.2043 28.33 16 28.33ZM16 24.33C16.1978 24.33 16.3911 24.3886 16.5556 24.4985C16.72 24.6084 16.8482 24.7646 16.9239 24.9473C16.9996 25.13 17.0194 25.3311 16.9808 25.5251C16.9422 25.7191 16.847 25.8973 16.7071 26.0371C16.5673 26.177 16.3891 26.2722 16.1951 26.3108C16.0011 26.3494 15.8 26.3296 15.6173 26.2539C15.4346 26.1782 15.2784 26.05 15.1685 25.8856C15.0586 25.7211 15 25.5278 15 25.33C15 25.0648 15.1054 24.8104 15.2929 24.6229C15.4804 24.4354 15.7348 24.33 16 24.33ZM17.41 16L18.21 15.21C18.3032 15.1168 18.3772 15.0061 18.4277 14.8842C18.4781 14.7624 18.5041 14.6319 18.5041 14.5C18.5041 14.3681 18.4781 14.2376 18.4277 14.1157C18.3772 13.9939 18.3032 13.8832 18.21 13.79C18.1168 13.6968 18.0061 13.6228 17.8842 13.5723C17.7624 13.5219 17.6319 13.4959 17.5 13.4959C17.3681 13.4959 17.2376 13.5219 17.1157 13.5723C16.9939 13.6228 16.8832 13.6968 16.79 13.79L16 14.59L15.21 13.79C15.0217 13.6017 14.7663 13.4959 14.5 13.4959C14.2337 13.4959 13.9783 13.6017 13.79 13.79C13.6017 13.9783 13.4959 14.2337 13.4959 14.5C13.4959 14.7663 13.6017 15.0217 13.79 15.21L14.59 16L13.79 16.79C13.6963 16.883 13.6219 16.9936 13.5711 17.1154C13.5203 17.2373 13.4942 17.368 13.4942 17.5C13.4942 17.632 13.5203 17.7627 13.5711 17.8846C13.6219 18.0064 13.6963 18.117 13.79 18.21C13.883 18.3037 13.9936 18.3781 14.1154 18.4289C14.2373 18.4797 14.368 18.5058 14.5 18.5058C14.632 18.5058 14.7627 18.4797 14.8846 18.4289C15.0064 18.3781 15.117 18.3037 15.21 18.21L16 17.41L16.79 18.21C16.883 18.3037 16.9936 18.3781 17.1154 18.4289C17.2373 18.4797 17.368 18.5058 17.5 18.5058C17.632 18.5058 17.7627 18.4797 17.8846 18.4289C18.0064 18.3781 18.117 18.3037 18.21 18.21C18.3037 18.117 18.3781 18.0064 18.4289 17.8846C18.4797 17.7627 18.5058 17.632 18.5058 17.5C18.5058 17.368 18.4797 17.2373 18.4289 17.1154C18.3781 16.9936 18.3037 16.883 18.21 16.79L17.41 16ZM26.75 16L27.54 15.21C27.6337 15.117 27.7081 15.0064 27.7589 14.8846C27.8097 14.7627 27.8358 14.632 27.8358 14.5C27.8358 14.368 27.8097 14.2373 27.7589 14.1154C27.7081 13.9936 27.6337 13.883 27.54 13.79C27.3526 13.6037 27.0992 13.4992 26.835 13.4992C26.5708 13.4992 26.3174 13.6037 26.13 13.79L25.33 14.59L24.54 13.79C24.3526 13.6037 24.0992 13.4992 23.835 13.4992C23.5708 13.4992 23.3174 13.6037 23.13 13.79C23.0363 13.883 22.9619 13.9936 22.9111 14.1154C22.8603 14.2373 22.8342 14.368 22.8342 14.5C22.8342 14.632 22.8603 14.7627 22.9111 14.8846C22.9619 15.0064 23.0363 15.117 23.13 15.21L23.92 16L23.13 16.79C22.9417 16.977 22.8354 17.2311 22.8344 17.4965C22.8335 17.7618 22.938 18.0167 23.125 18.205C23.312 18.3933 23.5661 18.4996 23.8315 18.5006C24.0968 18.5015 24.3517 18.397 24.54 18.21L25.33 17.41L26.13 18.21C26.2232 18.3026 26.3338 18.3759 26.4554 18.4257C26.5769 18.4756 26.7071 18.501 26.8385 18.5006C26.9699 18.5001 27.0999 18.4738 27.2212 18.423C27.3424 18.3723 27.4524 18.2982 27.545 18.205C27.6376 18.1118 27.7109 18.0012 27.7607 17.8796C27.8106 17.7581 27.836 17.6279 27.8356 17.4965C27.8351 17.3651 27.8087 17.2351 27.758 17.1138C27.7073 16.9926 27.6332 16.8826 27.54 16.79L26.75 16Z" fill="black"/>
</svg>
